<?xml version="1.0" encoding="utf-8"?>
<!-- Generator: Adobe Illustrator 21.0.2, SVG Export Plug-In . SVG Version: 6.00 Build 0)  -->
<svg version="1.1" id="Calque_1" xmlns="http://www.w3.org/2000/svg" xmlns:xlink="http://www.w3.org/1999/xlink" x="0px" y="0px"
	 viewBox="0 0 67.1 14.2" style="enable-background:new 0 0 67.1 14.2;" xml:space="preserve">
<style type="text/css">
	.st0{fill:#2A2D30;}
</style>
<g>
	<g>
		<path class="st0" d="M6,5.1C5.8,4.9,5.4,4.8,4.9,4.8c-0.6,0-1,0.1-1.3,0.4c-0.3,0.2-0.5,0.6-0.5,1s0.2,0.8,0.5,1s0.7,0.4,1.3,0.4
			c0.5,0,0.8-0.1,1.1-0.3c0.3-0.2,0.4-0.4,0.4-0.7h3.4c0,1-0.4,1.8-1.2,2.3C7.9,9.4,6.6,9.6,5,9.6c-1.7,0-3-0.3-3.8-0.8
			C0.4,8.2,0,7.4,0,6.2s0.4-2,1.2-2.6C2,3.1,3.3,2.8,5,2.8S7.9,3,8.7,3.5s1.2,1.2,1.2,2.2H6.5C6.4,5.5,6.3,5.3,6,5.1z"/>
		<path class="st0" d="M16.4,8.6h-3.5l-0.4,0.7H9.4L12.7,3h4L20,9.3h-3.2L16.4,8.6z M15.6,7l-0.9-1.8h-0.1L13.7,7H15.6z"/>
		<path class="st0" d="M31.2,9.4h-2.9v-4h-0.1l-1.6,3.9h-2.1l-1.6-4h-0.1v4h-2.7V3h4.3l1.1,3h0.1l1.1-3h4.5
			C31.2,3,31.2,9.4,31.2,9.4z"/>
		<path class="st0" d="M37.2,7.5c0.1-0.1,0.1-0.1,0.2-0.1c0.1,0,0.1,0.1,0.1,0.2c-0.1,0.5-0.4,0.9-0.8,1.3c-0.5,0.4-1.1,0.6-1.8,0.6
			c-0.9,0-1.6-0.3-2.2-0.9c-0.6-0.6-0.9-1.4-0.9-2.4c0-0.9,0.3-1.7,0.9-2.3C33.4,3.3,34.1,3,34.9,3c0.7,0,1.3,0.2,1.8,0.6
			s0.7,0.8,0.7,1.3c0,0.4-0.2,0.6-0.6,0.8l-3.6,1.2c0.1,0.6,0.4,1,0.8,1.3c0.4,0.3,0.8,0.5,1.4,0.5C36.2,8.7,36.8,8.3,37.2,7.5z
			 M34.8,3.4c-0.5,0-0.9,0.2-1.3,0.7S33,5.1,33,5.8c0,0.3,0,0.5,0.1,0.7l2.9-1c0.2-0.1,0.3-0.2,0.3-0.5s-0.1-0.7-0.4-1
			S35.2,3.4,34.8,3.4z M33.6,2.1c-0.1,0-0.3,0-0.3-0.1c-0.1-0.1,0-0.2,0.1-0.3l2.3-1.6C35.8-0.1,36,0,36.1,0.2l0.2,0.4
			c0.1,0.1,0.1,0.2,0,0.2c0,0.1-0.1,0.1-0.2,0.2L33.6,2.1z"/>
		<path class="st0" d="M47.5,9.4h-3.4l-1-1.6h-2v1.6h-2.9V3h6.5c1,0,1.7,0.2,2.1,0.5c0.4,0.4,0.6,0.9,0.6,1.7c0,0.5-0.1,1-0.4,1.2
			S46.4,7,46,7.1v0.1L47.5,9.4z M44.1,5.6c0-0.3-0.2-0.5-0.6-0.5h-2.4v1h2.4C43.9,6.1,44.1,5.9,44.1,5.6z"/>
		<path class="st0" d="M54.3,8.6h-3.5l-0.4,0.7h-3.2L50.6,3h4l3.3,6.3h-3.2L54.3,8.6z M53.5,7l-0.9-1.8h-0.1L51.7,7H53.5z"/>
		<path class="st0" d="M62.2,4.4c-0.4,0-0.8,0-1,0.1C61.1,4.6,61,4.7,61,4.8c0,0.1,0,0.2,0.2,0.3s0.3,0.1,0.6,0.1l2.7,0.2
			c0.9,0.1,1.5,0.3,2,0.6c0.4,0.3,0.6,0.8,0.6,1.4s-0.2,1.1-0.5,1.4s-0.8,0.5-1.5,0.7c-0.7,0.1-1.6,0.2-2.8,0.2
			c-1.1,0-2-0.1-2.7-0.2s-1.2-0.4-1.5-0.7S57.6,8,57.6,7.4H61c0.1,0.3,0.2,0.5,0.4,0.6c0.2,0.1,0.6,0.2,1,0.2c0.5,0,0.8,0,1-0.1
			c0.2-0.1,0.3-0.2,0.3-0.4c0-0.1-0.1-0.2-0.2-0.3c-0.1-0.1-0.3-0.1-0.6-0.1l-2.6-0.2c-0.9-0.1-1.5-0.3-2-0.5
			c-0.4-0.3-0.7-0.8-0.7-1.4c0-0.5,0.2-1,0.5-1.3C58.5,3.3,59,3.1,59.7,3s1.5-0.2,2.6-0.2c1,0,1.9,0.1,2.5,0.2
			c0.7,0.1,1.2,0.4,1.5,0.7C66.7,4,66.8,4.4,66.9,5h-3.3C63.4,4.6,63,4.4,62.2,4.4z"/>
	</g>
	<g>
		<path class="st0" d="M39.9,11.1c0.4,0,0.8,0.1,1,0.3s0.3,0.5,0.3,0.9s-0.1,0.7-0.3,0.9s-0.6,0.3-1,0.3s-0.7-0.1-0.9-0.4l0,0v0.3
			h-0.7v-3h0.8v1l0,0C39.2,11.2,39.5,11.1,39.9,11.1z M40.4,12.3c0-0.2-0.1-0.4-0.2-0.5s-0.3-0.2-0.6-0.2c-0.2,0-0.4,0.1-0.6,0.2
			s-0.2,0.3-0.2,0.5s0.1,0.3,0.2,0.5c0.1,0.1,0.3,0.2,0.6,0.2C40.1,12.9,40.4,12.7,40.4,12.3z"/>
		<path class="st0" d="M43.1,13.5c-0.1,0.2-0.2,0.3-0.3,0.4c-0.1,0.1-0.2,0.2-0.4,0.2c-0.1,0-0.3,0.1-0.5,0.1s-0.4,0-0.5,0v-0.6
			c0.1,0,0.2,0,0.4,0c0.1,0,0.2,0,0.3,0s0.1-0.1,0.1-0.1l0.1-0.1l-1.1-2.1h0.9l0.7,1.4l0,0l0.7-1.4h0.9L43.1,13.5z"/>
		<path class="st0" d="M49.4,10.8c0.3,0.3,0.5,0.6,0.5,1.2c0,0.5-0.2,0.9-0.5,1.2s-0.8,0.4-1.4,0.4c-0.6,0-1.1-0.1-1.4-0.4
			S46,12.4,46,11.9s0.2-0.9,0.5-1.2s0.8-0.4,1.4-0.4C48.6,10.4,49,10.5,49.4,10.8z M48.7,12.6c0.2-0.2,0.3-0.4,0.3-0.7
			s-0.1-0.5-0.3-0.7S48.2,11,47.9,11s-0.6,0.1-0.8,0.2s-0.3,0.4-0.3,0.7s0.1,0.5,0.3,0.7s0.5,0.2,0.8,0.2
			C48.3,12.8,48.6,12.8,48.7,12.6z"/>
		<path class="st0" d="M51,11.2v0.3l0,0c0.1-0.1,0.3-0.2,0.4-0.3c0.2-0.1,0.4-0.1,0.6-0.1c0.1,0,0.2,0,0.3,0v0.7c-0.1,0-0.3,0-0.4,0
			c-0.3,0-0.5,0.1-0.7,0.2c-0.2,0.1-0.3,0.3-0.3,0.6v0.8h-0.8v-2.2H51z"/>
		<path class="st0" d="M52.7,10.4h0.8v0.5h-0.8V10.4z M52.8,11.2h0.8v2.2h-0.8V11.2z"/>
		<path class="st0" d="M54.7,11.5L54.7,11.5c0.3-0.2,0.6-0.3,1-0.3c0.3,0,0.6,0.1,0.8,0.2c0.2,0.1,0.3,0.3,0.3,0.6v1.4H56v-1.2
			c0-0.2-0.1-0.3-0.2-0.4c-0.1-0.1-0.3-0.1-0.5-0.1s-0.4,0-0.5,0.1s-0.2,0.2-0.2,0.5v1.1H54v-2.2h0.7V11.5z"/>
		<path class="st0" d="M59.9,11.4c0.3,0.2,0.4,0.5,0.4,0.9s-0.1,0.7-0.4,0.9c-0.3,0.2-0.6,0.3-1.2,0.3s-0.9-0.1-1.2-0.3
			s-0.4-0.5-0.4-0.9s0.1-0.7,0.4-0.9c0.3-0.2,0.6-0.3,1.2-0.3S59.7,11.2,59.9,11.4z M59.5,12.3c0-0.4-0.3-0.6-0.8-0.6
			s-0.8,0.2-0.8,0.6c0,0.4,0.3,0.6,0.8,0.6C59.3,12.9,59.5,12.7,59.5,12.3z"/>
		<path class="st0" d="M62.7,12.8c0.1-0.1,0.2-0.2,0.2-0.3h0.8c0,0.3-0.2,0.5-0.4,0.7s-0.6,0.2-1.1,0.2s-0.9-0.1-1.1-0.3
			c-0.3-0.2-0.4-0.5-0.4-0.9s0.1-0.7,0.4-0.9c0.3-0.2,0.6-0.3,1.1-0.3s0.9,0.1,1.1,0.2c0.2,0.2,0.4,0.4,0.4,0.7h-0.8
			c0-0.1-0.1-0.2-0.2-0.3c-0.1-0.1-0.3-0.1-0.5-0.1c-0.5,0-0.7,0.2-0.7,0.6c0,0.2,0.1,0.4,0.2,0.5c0.1,0.1,0.3,0.2,0.6,0.2
			C62.4,12.9,62.6,12.9,62.7,12.8z"/>
		<path class="st0" d="M66.7,11.4c0.3,0.2,0.4,0.5,0.4,0.9S67,13,66.7,13.2s-0.6,0.3-1.2,0.3s-0.9-0.1-1.2-0.3
			c-0.3-0.2-0.4-0.5-0.4-0.9s0.1-0.7,0.4-0.9s0.6-0.3,1.2-0.3S66.5,11.2,66.7,11.4z M66.3,12.3c0-0.4-0.3-0.6-0.8-0.6
			s-0.8,0.2-0.8,0.6c0,0.4,0.3,0.6,0.8,0.6S66.3,12.7,66.3,12.3z"/>
	</g>
</g>
</svg>
